{"accessors":[{"bufferView":0,"byteOffset":0,"componentType":5126,"count":24,"max":[0.999979,0.999979,1],"min":[-1,-1,-1],"normalized":false,"type":"VEC3"},{"bufferView":1,"byteOffset":0,"componentType":5126,"count":24,"max":[1,1,0.000074,1],"min":[-1,-0.00003,-0.000031,1],"normalized":false,"type":"VEC4"},{"bufferView":2,"byteOffset":0,"componentType":5126,"count":24,"max":[1,1,1],"min":[-1,-1,-1],"normalized":false,"type":"VEC3"},{"bufferView":3,"byteOffset":0,"componentType":5126,"count":24,"max":[0.874998,1],"min":[0.124987,0],"normalized":false,"type":"VEC2"},{"bufferView":4,"byteOffset":0,"componentType":5125,"count":36,"max":[23],"min":[0],"normalized":false,"type":"SCALAR"},{"bufferView":5,"byteOffset":0,"componentType":5126,"count":24,"max":[0.999979,0.999979,1],"min":[-1,-1,-1],"normalized":false,"type":"VEC3"},{"bufferView":6,"byteOffset":0,"componentType":5126,"count":24,"max":[1,1,0.000074,1],"min":[-1,-0.00003,-0.000031,1],"normalized":false,"type":"VEC4"},{"bufferView":7,"byteOffset":0,"componentType":5126,"count":24,"max":[1,1,1],"min":[-1,-1,-1],"normalized":false,"type":"VEC3"},{"bufferView":8,"byteOffset":0,"componentType":5126,"count":24,"max":[0.874998,1],"min":[0.124987,0],"normalized":false,"type":"VEC2"},{"bufferView":9,"byteOffset":0,"componentType":5125,"count":36,"max":[23],"min":[0],"normalized":false,"type":"SCALAR"},{"bufferView":10,"byteOffset":0,"componentType":5126,"count":24,"max":[0.999979,0.999979,1],"min":[-1,-1,-1],"normalized":false,"type":"VEC3"},{"bufferView":11,"byteOffset":0,"componentType":5126,"count":24,"max":[1,1,0.000074,1],"min":[-1,-0.00003,-0.000031,1],"normalized":false,"type":"VEC4"},{"bufferView":12,"byteOffset":0,"componentType":5126,"count":24,"max":[1,1,1],"min":[-1,-1,-1],"normalized":false,"type":"VEC3"},{"bufferView":13,"byteOffset":0,"componentType":5126,"count":24,"max":[0.874998,1],"min":[0.124987,0],"normalized":false,"type":"VEC2"},{"bufferView":14,"byteOffset":0,"componentType":5125,"count":36,"max":[23],"min":[0],"normalized":false,"type":"SCALAR"},{"bufferView":15,"byteOffset":0,"componentType":5126,"count":24,"max":[0.999979,0.999979,1],"min":[-1,-1,-1],"normalized":false,"type":"VEC3"},{"bufferView":16,"byteOffset":0,"componentType":5126,"count":24,"max":[1,1,0.000074,1],"min":[-1,-0.00003,-0.000031,1],"normalized":false,"type":"VEC4"},{"bufferView":17,"byteOffset":0,"componentType":5126,"count":24,"max":[1,1,1],"min":[-1,-1,-1],"normalized":false,"type":"VEC3"},{"bufferView":18,"byteOffset":0,"componentType":5126,"count":24,"max":[0.874998,1],"min":[0.124987,0],"normalized":false,"type":"VEC2"},{"bufferView":19,"byteOffset":0,"componentType":5125,"count":36,"max":[23],"min":[0],"normalized":false,"type":"SCALAR"},{"bufferView":20,"byteOffset":0,"componentType":5126,"count":24,"max":[0.999979,0.999979,1],"min":[-1,-1,-1],"normalized":false,"type":"VEC3"},{"bufferView":21,"byteOffset":0,"componentType":5126,"count":24,"max":[1,1,0.000074,1],"min":[-1,-0.00003,-0.000031,1],"normalized":false,"type":"VEC4"},{"bufferView":22,"byteOffset":0,"componentType":5126,"count":24,"max":[1,1,1],"min":[-1,-1,-1],"normalized":false,"type":"VEC3"},{"bufferView":23,"byteOffset":0,"componentType":5126,"count":24,"max":[0.874998,1],"min":[0.124987,0],"normalized":false,"type":"VEC2"},{"bufferView":24,"byteOffset":0,"componentType":5125,"count":36,"max":[23],"min":[0],"normalized":false,"type":"SCALAR"},{"bufferView":25,"byteOffset":0,"componentType":5126,"count":24,"max":[0.999979,0.999979,1],"min":[-1,-1,-1],"normalized":false,"type":"VEC3"},{"bufferView":26,"byteOffset":0,"componentType":5126,"count":24,"max":[1,1,0.000074,1],"min":[-1,-0.00003,-0.000031,1],"normalized":false,"type":"VEC4"},{"bufferView":27,"byteOffset":0,"componentType":5126,"count":24,"max":[1,1,1],"min":[-1,-1,-1],"normalized":false,"type":"VEC3"},{"bufferView":28,"byteOffset":0,"componentType":5126,"count":24,"max":[0.874998,1],"min":[0.124987,0],"normalized":false,"type":"VEC2"},{"bufferView":29,"byteOffset":0,"componentType":5125,"count":36,"max":[23],"min":[0],"normalized":false,"type":"SCALAR"}],"asset":{"generator":"Godot Engine v4.2.2.stable.official@15073afe3856abd2aa1622492fe50026c7d63dc1","version":"2.0"},"bufferViews":[{"buffer":0,"byteLength":288,"byteOffset":0},{"buffer":0,"byteLength":384,"byteOffset":288},{"buffer":0,"byteLength":288,"byteOffset":672},{"buffer":0,"byteLength":192,"byteOffset":960},{"buffer":0,"byteLength":144,"byteOffset":1152},{"buffer":0,"byteLength":288,"byteOffset":1296},{"buffer":0,"byteLength":384,"byteOffset":1584},{"buffer":0,"byteLength":288,"byteOffset":1968},{"buffer":0,"byteLength":192,"byteOffset":2256},{"buffer":0,"byteLength":144,"byteOffset":2448},{"buffer":0,"byteLength":288,"byteOffset":2592},{"buffer":0,"byteLength":384,"byteOffset":2880},{"buffer":0,"byteLength":288,"byteOffset":3264},{"buffer":0,"byteLength":192,"byteOffset":3552},{"buffer":0,"byteLength":144,"byteOffset":3744},{"buffer":0,"byteLength":288,"byteOffset":3888},{"buffer":0,"byteLength":384,"byteOffset":4176},{"buffer":0,"byteLength":288,"byteOffset":4560},{"buffer":0,"byteLength":192,"byteOffset":4848},{"buffer":0,"byteLength":144,"byteOffset":5040},{"buffer":0,"byteLength":288,"byteOffset":5184},{"buffer":0,"byteLength":384,"byteOffset":5472},{"buffer":0,"byteLength":288,"byteOffset":5856},{"buffer":0,"byteLength":192,"byteOffset":6144},{"buffer":0,"byteLength":144,"byteOffset":6336},{"buffer":0,"byteLength":288,"byteOffset":6480},{"buffer":0,"byteLength":384,"byteOffset":6768},{"buffer":0,"byteLength":288,"byteOffset":7152},{"buffer":0,"byteLength":192,"byteOffset":7440},{"buffer":0,"byteLength":144,"byteOffset":7632}],"buffers":[{"byteLength":7776,"uri":"run_track0.bin"}],"extensionsUsed":["GODOT_single_root"],"materials":[{"doubleSided":true,"extensions":{},"name":"Material","pbrMetallicRoughness":{"baseColorFactor":[0.799999892711639,0.799999892711639,0.799999892711639,1],"metallicFactor":0,"roughnessFactor":0.5}}],"meshes":[{"extras":{"targetNames":[]},"primitives":[{"attributes":{"NORMAL":2,"POSITION":0,"TANGENT":1,"TEXCOORD_0":3},"indices":4,"material":0,"mode":4}]},{"extras":{"targetNames":[]},"primitives":[{"attributes":{"NORMAL":7,"POSITION":5,"TANGENT":6,"TEXCOORD_0":8},"indices":9,"material":0,"mode":4}]},{"extras":{"targetNames":[]},"primitives":[{"attributes":{"NORMAL":12,"POSITION":10,"TANGENT":11,"TEXCOORD_0":13},"indices":14,"material":0,"mode":4}]},{"extras":{"targetNames":[]},"primitives":[{"attributes":{"NORMAL":17,"POSITION":15,"TANGENT":16,"TEXCOORD_0":18},"indices":19,"material":0,"mode":4}]},{"extras":{"targetNames":[]},"primitives":[{"attributes":{"NORMAL":22,"POSITION":20,"TANGENT":21,"TEXCOORD_0":23},"indices":24,"material":0,"mode":4}]},{"extras":{"targetNames":[]},"primitives":[{"attributes":{"NORMAL":27,"POSITION":25,"TANGENT":26,"TEXCOORD_0":28},"indices":29,"material":0,"mode":4}]}],"nodes":[{"children":[1,3,5,7,9,11],"extensions":{},"name":"RunTrack"},{"children":[2],"extensions":{},"name":"blocktest","scale":[3.02083587646484,0.276446938514709,21.0400447845459],"translation":[-0.00355911254883,0.183683156967163,29.6427783966064]},{"extensions":{},"mesh":0,"name":"Cube"},{"children":[4],"extensions":{},"name":"blocktest6","scale":[3.02083587646484,0.276446938514709,19.0847988128662],"translation":[16.1307907104492,0.212091207504272,-2.93441390991211]},{"extensions":{},"mesh":1,"name":"Cube2"},{"children":[6],"extensions":{},"name":"blocktest5","scale":[3.02083587646484,0.276446938514709,32.2885513305664],"translation":[-18.9344635009766,0.183683156967163,13.0693130493164]},{"extensions":{},"mesh":2,"name":"Cube3"},{"children":[8],"extensions":{},"name":"blocktest2","rotation":[0,-0.70710676908493,0,0.70710676908493],"scale":[3.02083587646484,0.276446938514709,13.6429309844971],"translation":[-11.2470531463623,0.183683156967163,47.5915832519531]},{"extensions":{},"mesh":3,"name":"Cube4","scale":[1,1,0.79168826341629]},{"children":[10],"extensions":{},"name":"blocktest3","rotation":[0,-0.70710676908493,0,0.70710676908493],"scale":[3.02083587646484,0.276446938514709,19.9492797851563],"translation":[-1.88376331329346,0.183683156967163,-18.9821701049805]},{"extensions":{},"mesh":4,"name":"Cube5"},{"children":[12],"extensions":{},"name":"blocktest4","rotation":[0,-0.70710676908493,0,0.70710676908493],"scale":[3.02083587646484,0.276446938514709,9.20975494384766],"translation":[9.95183372497559,0.183683156967163,15.0421409606934]},{"extensions":{},"mesh":5,"name":"Cube6"}],"scene":0,"scenes":[{"nodes":[0]}]}